<svg xmlns="http://www.w3.org/2000/svg" width="24" height="21" viewBox="0 0 24 21">
  <metadata><?xpacket begin="﻿" id="W5M0MpCehiHzreSzNTczkc9d"?>
<x:xmpmeta xmlns:x="adobe:ns:meta/" x:xmptk="Adobe XMP Core 5.6-c142 79.160924, 2017/07/13-01:06:39        ">
   <rdf:RDF xmlns:rdf="http://www.w3.org/1999/02/22-rdf-syntax-ns#">
      <rdf:Description rdf:about=""/>
   </rdf:RDF>
</x:xmpmeta>
                                                                                                    
                                                                                                    
                                                                                                    
                                                                                                    
                                                                                                    
                                                                                                    
                                                                                                    
                                                                                                    
                                                                                                    
                                                                                                    
                                                                                                    
                                                                                                    
                                                                                                    
                                                                                                    
                                                                                                    
                                                                                                    
                                                                                                    
                                                                                                    
                                                                                                    
                                                                                                    
                           
<?xpacket end="w"?></metadata>
<defs>
    <style>
      .cls-1 {
        fill: #545454;
        fill-rule: evenodd;
      }
    </style>
  </defs>
  <path class="cls-1" d="M3.753,6.857h6.523l-0.843-1.5H3.718a0.681,0.681,0,1,1,0-1.36H9.825a0.7,0.7,0,0,1,.611.341l1.44,2.519h2.693a0.7,0.7,0,0,1,.718.68V8.709L18.993,7.2A0.706,0.706,0,0,1,20,7.806v7.245a0.706,0.706,0,0,1-1.006.578l-3.7-1.511v1.2a0.7,0.7,0,0,1-.718.68H3.753a0.724,0.724,0,0,1-.718-0.68V7.537A0.7,0.7,0,0,1,3.753,6.857ZM18.559,14V8.831l-3.272,1.327v2.519Zm-14.088.647h9.417V8.184H4.471v6.463Z"/>
</svg>
